# Blender v2.79 (sub 0) OBJ File: ''
# www.blender.org
mtllib FreeTranslator.mtl
o Cube_Cube.001
v -0.100000 -0.100000 0.100000
v -0.100000 0.100000 0.100000
v -0.100000 -0.100000 -0.100000
v -0.100000 0.100000 -0.100000
v 0.100000 -0.100000 0.100000
v 0.100000 0.100000 0.100000
v 0.100000 -0.100000 -0.100000
v 0.100000 0.100000 -0.100000
v -0.100000 0.400000 0.100000
v -0.100000 0.400000 -0.100000
v 0.100000 0.400000 -0.100000
v 0.100000 0.400000 0.100000
v -0.200000 0.400000 0.200000
v -0.200000 0.400000 -0.200000
v 0.200000 0.400000 -0.200000
v 0.200000 0.400000 0.200000
v 0.000000 0.700000 0.000000
v 0.400000 -0.100000 0.100000
v 0.400000 -0.100000 -0.100000
v 0.400000 0.100000 -0.100000
v 0.400000 0.100000 0.100000
v 0.400000 0.200000 0.200000
v 0.400000 -0.200000 0.200000
v 0.400000 0.200000 -0.200000
v 0.400000 -0.200000 -0.200000
v 0.700000 0.000000 0.000000
v 0.100000 0.100000 0.400000
v -0.100000 0.100000 0.400000
v -0.100000 -0.100000 0.400000
v 0.100000 -0.100000 0.400000
v 0.200000 0.200000 0.400000
v -0.200000 0.200000 0.400000
v -0.200000 -0.200000 0.400000
v 0.200000 -0.200000 0.400000
v 0.000000 0.000000 0.700000
vn -1.0000 0.0000 0.0000
vn 0.0000 0.0000 -1.0000
vn 0.0000 0.0000 1.0000
vn 0.0000 1.0000 0.0000
vn 0.0000 -1.0000 0.0000
vn 1.0000 0.0000 0.0000
vn 0.8321 0.5547 0.0000
vn -0.8321 0.5547 0.0000
vn 0.0000 0.5547 0.8321
vn 0.0000 0.5547 -0.8321
vn 0.5547 -0.8321 0.0000
vn 0.5547 0.0000 0.8321
vn 0.5547 0.0000 -0.8321
vn 0.5547 0.8321 0.0000
vn 0.8321 0.0000 0.5547
vn 0.0000 0.8321 0.5547
vn -0.8321 0.0000 0.5547
vn 0.0000 -0.8321 0.5547
usemtl None
s off
f 1//1 2//1 4//1 3//1
f 3//2 4//2 8//2 7//2
f 6//3 5//3 18//3 21//3
f 6//4 2//4 28//4 27//4
f 3//5 7//5 5//5 1//5
f 4//1 2//1 9//1 10//1
f 9//5 12//5 16//5 13//5
f 2//3 6//3 12//3 9//3
f 8//2 4//2 10//2 11//2
f 6//6 8//6 11//6 12//6
f 16//7 15//7 17//7
f 11//5 10//5 14//5 15//5
f 12//5 11//5 15//5 16//5
f 10//5 9//5 13//5 14//5
f 5//5 7//5 19//5 18//5
f 14//8 13//8 17//8
f 13//9 16//9 17//9
f 15//10 14//10 17//10
f 18//1 19//1 25//1 23//1
f 8//4 6//4 21//4 20//4
f 7//2 8//2 20//2 19//2
f 23//11 25//11 26//11
f 20//1 21//1 22//1 24//1
f 19//1 20//1 24//1 25//1
f 21//1 18//1 23//1 22//1
f 5//6 6//6 27//6 30//6
f 22//12 23//12 26//12
f 25//13 24//13 26//13
f 24//14 22//14 26//14
f 30//2 27//2 31//2 34//2
f 2//1 1//1 29//1 28//1
f 1//5 5//5 30//5 29//5
f 34//15 31//15 35//15
f 29//2 30//2 34//2 33//2
f 28//2 29//2 33//2 32//2
f 27//2 28//2 32//2 31//2
f 31//16 32//16 35//16
f 32//17 33//17 35//17
f 33//18 34//18 35//18
