# Blender v2.79 (sub 0) OBJ File: 'Icon2DNominal.blend'
# www.blender.org
mtllib Icon2DNominal.mtl
o Cube.003
v -0.100000 1.200000 -0.500000
v -0.100000 1.400000 -0.500000
v -0.100000 1.200000 -0.700000
v -0.100000 1.400000 -0.700000
v 0.100000 1.200000 -0.500000
v 0.100000 1.400000 -0.500000
v 0.100000 1.200000 -0.700000
v 0.100000 1.400000 -0.700000
v -0.100000 1.200000 0.700000
v -0.100000 1.400000 0.700000
v -0.100000 1.200000 0.500000
v -0.100000 1.400000 0.500000
v 0.100000 1.200000 0.700000
v 0.100000 1.400000 0.700000
v 0.100000 1.200000 0.500000
v 0.100000 1.400000 0.500000
v -0.100000 1.200000 0.400000
v -0.100000 1.400000 0.400000
v -0.100000 1.200000 0.200000
v -0.100000 1.400000 0.200000
v 0.100000 1.200000 0.400000
v 0.100000 1.400000 0.400000
v 0.100000 1.200000 0.200000
v 0.100000 1.400000 0.200000
v -0.100000 1.200000 -0.200000
v -0.100000 1.400000 -0.200000
v -0.100000 1.200000 -0.400000
v -0.100000 1.400000 -0.400000
v 0.100000 1.200000 -0.200000
v 0.100000 1.400000 -0.200000
v 0.100000 1.200000 -0.400000
v 0.100000 1.400000 -0.400000
v -0.100000 1.200000 0.100000
v -0.100000 1.400000 0.100000
v -0.100000 1.200000 -0.100000
v -0.100000 1.400000 -0.100000
v 0.100000 1.200000 0.100000
v 0.100000 1.400000 0.100000
v 0.100000 1.200000 -0.100000
v 0.100000 1.400000 -0.100000
vn -1.0000 0.0000 0.0000
vn 0.0000 0.0000 -1.0000
vn 1.0000 0.0000 0.0000
vn 0.0000 0.0000 1.0000
vn 0.0000 -1.0000 0.0000
vn 0.0000 1.0000 0.0000
usemtl None
s off
f 1//1 2//1 4//1 3//1
f 3//2 4//2 8//2 7//2
f 7//3 8//3 6//3 5//3
f 5//4 6//4 2//4 1//4
f 3//5 7//5 5//5 1//5
f 8//6 4//6 2//6 6//6
f 9//1 10//1 12//1 11//1
f 11//2 12//2 16//2 15//2
f 15//3 16//3 14//3 13//3
f 13//4 14//4 10//4 9//4
f 11//5 15//5 13//5 9//5
f 16//6 12//6 10//6 14//6
f 17//1 18//1 20//1 19//1
f 19//2 20//2 24//2 23//2
f 23//3 24//3 22//3 21//3
f 21//4 22//4 18//4 17//4
f 19//5 23//5 21//5 17//5
f 24//6 20//6 18//6 22//6
f 25//1 26//1 28//1 27//1
f 27//2 28//2 32//2 31//2
f 31//3 32//3 30//3 29//3
f 29//4 30//4 26//4 25//4
f 27//5 31//5 29//5 25//5
f 32//6 28//6 26//6 30//6
f 33//1 34//1 36//1 35//1
f 35//2 36//2 40//2 39//2
f 39//3 40//3 38//3 37//3
f 37//4 38//4 34//4 33//4
f 35//5 39//5 37//5 33//5
f 40//6 36//6 34//6 38//6
o Cube.002
v -0.100000 0.900000 -0.500000
v -0.100000 1.100000 -0.500000
v -0.100000 0.900000 -0.700000
v -0.100000 1.100000 -0.700000
v 0.100000 0.900000 -0.500000
v 0.100000 1.100000 -0.500000
v 0.100000 0.900000 -0.700000
v 0.100000 1.100000 -0.700000
v -0.100000 0.900000 0.700000
v -0.100000 1.100000 0.700000
v -0.100000 0.900000 0.500000
v -0.100000 1.100000 0.500000
v 0.100000 0.900000 0.700000
v 0.100000 1.100000 0.700000
v 0.100000 0.900000 0.500000
v 0.100000 1.100000 0.500000
v -0.100000 0.900000 0.400000
v -0.100000 1.100000 0.400000
v -0.100000 0.900000 0.200000
v -0.100000 1.100000 0.200000
v 0.100000 0.900000 0.400000
v 0.100000 1.100000 0.400000
v 0.100000 0.900000 0.200000
v 0.100000 1.100000 0.200000
v -0.100000 0.900000 -0.200000
v -0.100000 1.100000 -0.200000
v -0.100000 0.900000 -0.400000
v -0.100000 1.100000 -0.400000
v 0.100000 0.900000 -0.200000
v 0.100000 1.100000 -0.200000
v 0.100000 0.900000 -0.400000
v 0.100000 1.100000 -0.400000
v -0.100000 0.900000 0.100000
v -0.100000 1.100000 0.100000
v -0.100000 0.900000 -0.100000
v -0.100000 1.100000 -0.100000
v 0.100000 0.900000 0.100000
v 0.100000 1.100000 0.100000
v 0.100000 0.900000 -0.100000
v 0.100000 1.100000 -0.100000
vn -1.0000 0.0000 0.0000
vn 0.0000 0.0000 -1.0000
vn 1.0000 0.0000 0.0000
vn 0.0000 0.0000 1.0000
vn 0.0000 -1.0000 0.0000
vn 0.0000 1.0000 0.0000
usemtl None
s off
f 41//7 42//7 44//7 43//7
f 43//8 44//8 48//8 47//8
f 47//9 48//9 46//9 45//9
f 45//10 46//10 42//10 41//10
f 43//11 47//11 45//11 41//11
f 48//12 44//12 42//12 46//12
f 49//7 50//7 52//7 51//7
f 51//8 52//8 56//8 55//8
f 55//9 56//9 54//9 53//9
f 53//10 54//10 50//10 49//10
f 51//11 55//11 53//11 49//11
f 56//12 52//12 50//12 54//12
f 57//7 58//7 60//7 59//7
f 59//8 60//8 64//8 63//8
f 63//9 64//9 62//9 61//9
f 61//10 62//10 58//10 57//10
f 59//11 63//11 61//11 57//11
f 64//12 60//12 58//12 62//12
f 65//7 66//7 68//7 67//7
f 67//8 68//8 72//8 71//8
f 71//9 72//9 70//9 69//9
f 69//10 70//10 66//10 65//10
f 67//11 71//11 69//11 65//11
f 72//12 68//12 66//12 70//12
f 73//7 74//7 76//7 75//7
f 75//8 76//8 80//8 79//8
f 79//9 80//9 78//9 77//9
f 77//10 78//10 74//10 73//10
f 75//11 79//11 77//11 73//11
f 80//12 76//12 74//12 78//12
o Cube.001
v -0.100000 0.600000 -0.500000
v -0.100000 0.800000 -0.500000
v -0.100000 0.600000 -0.700000
v -0.100000 0.800000 -0.700000
v 0.100000 0.600000 -0.500000
v 0.100000 0.800000 -0.500000
v 0.100000 0.600000 -0.700000
v 0.100000 0.800000 -0.700000
v -0.100000 0.600000 0.700000
v -0.100000 0.800000 0.700000
v -0.100000 0.600000 0.500000
v -0.100000 0.800000 0.500000
v 0.100000 0.600000 0.700000
v 0.100000 0.800000 0.700000
v 0.100000 0.600000 0.500000
v 0.100000 0.800000 0.500000
v -0.100000 0.600000 0.400000
v -0.100000 0.800000 0.400000
v -0.100000 0.600000 0.200000
v -0.100000 0.800000 0.200000
v 0.100000 0.600000 0.400000
v 0.100000 0.800000 0.400000
v 0.100000 0.600000 0.200000
v 0.100000 0.800000 0.200000
v -0.100000 0.600000 -0.200000
v -0.100000 0.800000 -0.200000
v -0.100000 0.600000 -0.400000
v -0.100000 0.800000 -0.400000
v 0.100000 0.600000 -0.200000
v 0.100000 0.800000 -0.200000
v 0.100000 0.600000 -0.400000
v 0.100000 0.800000 -0.400000
v -0.100000 0.600000 0.100000
v -0.100000 0.800000 0.100000
v -0.100000 0.600000 -0.100000
v -0.100000 0.800000 -0.100000
v 0.100000 0.600000 0.100000
v 0.100000 0.800000 0.100000
v 0.100000 0.600000 -0.100000
v 0.100000 0.800000 -0.100000
vn -1.0000 0.0000 0.0000
vn 0.0000 0.0000 -1.0000
vn 1.0000 0.0000 0.0000
vn 0.0000 0.0000 1.0000
vn 0.0000 -1.0000 0.0000
vn 0.0000 1.0000 0.0000
usemtl None
s off
f 81//13 82//13 84//13 83//13
f 83//14 84//14 88//14 87//14
f 87//15 88//15 86//15 85//15
f 85//16 86//16 82//16 81//16
f 83//17 87//17 85//17 81//17
f 88//18 84//18 82//18 86//18
f 89//13 90//13 92//13 91//13
f 91//14 92//14 96//14 95//14
f 95//15 96//15 94//15 93//15
f 93//16 94//16 90//16 89//16
f 91//17 95//17 93//17 89//17
f 96//18 92//18 90//18 94//18
f 97//13 98//13 100//13 99//13
f 99//14 100//14 104//14 103//14
f 103//15 104//15 102//15 101//15
f 101//16 102//16 98//16 97//16
f 99//17 103//17 101//17 97//17
f 104//18 100//18 98//18 102//18
f 105//13 106//13 108//13 107//13
f 107//14 108//14 112//14 111//14
f 111//15 112//15 110//15 109//15
f 109//16 110//16 106//16 105//16
f 107//17 111//17 109//17 105//17
f 112//18 108//18 106//18 110//18
f 113//13 114//13 116//13 115//13
f 115//14 116//14 120//14 119//14
f 119//15 120//15 118//15 117//15
f 117//16 118//16 114//16 113//16
f 115//17 119//17 117//17 113//17
f 120//18 116//18 114//18 118//18
o Cube.000
v -0.100000 0.300000 -0.500000
v -0.100000 0.500000 -0.500000
v -0.100000 0.300000 -0.700000
v -0.100000 0.500000 -0.700000
v 0.100000 0.300000 -0.500000
v 0.100000 0.500000 -0.500000
v 0.100000 0.300000 -0.700000
v 0.100000 0.500000 -0.700000
v -0.100000 0.300000 0.700000
v -0.100000 0.500000 0.700000
v -0.100000 0.300000 0.500000
v -0.100000 0.500000 0.500000
v 0.100000 0.300000 0.700000
v 0.100000 0.500000 0.700000
v 0.100000 0.300000 0.500000
v 0.100000 0.500000 0.500000
v -0.100000 0.300000 0.400000
v -0.100000 0.500000 0.400000
v -0.100000 0.300000 0.200000
v -0.100000 0.500000 0.200000
v 0.100000 0.300000 0.400000
v 0.100000 0.500000 0.400000
v 0.100000 0.300000 0.200000
v 0.100000 0.500000 0.200000
v -0.100000 0.300000 -0.200000
v -0.100000 0.500000 -0.200000
v -0.100000 0.300000 -0.400000
v -0.100000 0.500000 -0.400000
v 0.100000 0.300000 -0.200000
v 0.100000 0.500000 -0.200000
v 0.100000 0.300000 -0.400000
v 0.100000 0.500000 -0.400000
v -0.100000 0.300000 0.100000
v -0.100000 0.500000 0.100000
v -0.100000 0.300000 -0.100000
v -0.100000 0.500000 -0.100000
v 0.100000 0.300000 0.100000
v 0.100000 0.500000 0.100000
v 0.100000 0.300000 -0.100000
v 0.100000 0.500000 -0.100000
vn -1.0000 0.0000 0.0000
vn 0.0000 0.0000 -1.0000
vn 1.0000 0.0000 0.0000
vn 0.0000 0.0000 1.0000
vn 0.0000 -1.0000 0.0000
vn 0.0000 1.0000 0.0000
usemtl None
s off
f 121//19 122//19 124//19 123//19
f 123//20 124//20 128//20 127//20
f 127//21 128//21 126//21 125//21
f 125//22 126//22 122//22 121//22
f 123//23 127//23 125//23 121//23
f 128//24 124//24 122//24 126//24
f 129//19 130//19 132//19 131//19
f 131//20 132//20 136//20 135//20
f 135//21 136//21 134//21 133//21
f 133//22 134//22 130//22 129//22
f 131//23 135//23 133//23 129//23
f 136//24 132//24 130//24 134//24
f 137//19 138//19 140//19 139//19
f 139//20 140//20 144//20 143//20
f 143//21 144//21 142//21 141//21
f 141//22 142//22 138//22 137//22
f 139//23 143//23 141//23 137//23
f 144//24 140//24 138//24 142//24
f 145//19 146//19 148//19 147//19
f 147//20 148//20 152//20 151//20
f 151//21 152//21 150//21 149//21
f 149//22 150//22 146//22 145//22
f 147//23 151//23 149//23 145//23
f 152//24 148//24 146//24 150//24
f 153//19 154//19 156//19 155//19
f 155//20 156//20 160//20 159//20
f 159//21 160//21 158//21 157//21
f 157//22 158//22 154//22 153//22
f 155//23 159//23 157//23 153//23
f 160//24 156//24 154//24 158//24
o Cube.004_Cube.022
v -0.100000 0.000000 -0.500000
v -0.100000 0.200000 -0.500000
v -0.100000 0.000000 -0.700000
v -0.100000 0.200000 -0.700000
v 0.100000 0.000000 -0.500000
v 0.100000 0.200000 -0.500000
v 0.100000 0.000000 -0.700000
v 0.100000 0.200000 -0.700000
v -0.100000 0.000000 0.700000
v -0.100000 0.200000 0.700000
v -0.100000 0.000000 0.500000
v -0.100000 0.200000 0.500000
v 0.100000 0.000000 0.700000
v 0.100000 0.200000 0.700000
v 0.100000 0.000000 0.500000
v 0.100000 0.200000 0.500000
v -0.100000 0.000000 0.400000
v -0.100000 0.200000 0.400000
v -0.100000 0.000000 0.200000
v -0.100000 0.200000 0.200000
v 0.100000 0.000000 0.400000
v 0.100000 0.200000 0.400000
v 0.100000 0.000000 0.200000
v 0.100000 0.200000 0.200000
v -0.100000 0.000000 -0.200000
v -0.100000 0.200000 -0.200000
v -0.100000 0.000000 -0.400000
v -0.100000 0.200000 -0.400000
v 0.100000 0.000000 -0.200000
v 0.100000 0.200000 -0.200000
v 0.100000 0.000000 -0.400000
v 0.100000 0.200000 -0.400000
v -0.100000 0.000000 0.100000
v -0.100000 0.200000 0.100000
v -0.100000 0.000000 -0.100000
v -0.100000 0.200000 -0.100000
v 0.100000 0.000000 0.100000
v 0.100000 0.200000 0.100000
v 0.100000 0.000000 -0.100000
v 0.100000 0.200000 -0.100000
vn -1.0000 0.0000 0.0000
vn 0.0000 0.0000 -1.0000
vn 1.0000 0.0000 0.0000
vn 0.0000 0.0000 1.0000
vn 0.0000 -1.0000 0.0000
vn 0.0000 1.0000 0.0000
usemtl None
s off
f 161//25 162//25 164//25 163//25
f 163//26 164//26 168//26 167//26
f 167//27 168//27 166//27 165//27
f 165//28 166//28 162//28 161//28
f 163//29 167//29 165//29 161//29
f 168//30 164//30 162//30 166//30
f 169//25 170//25 172//25 171//25
f 171//26 172//26 176//26 175//26
f 175//27 176//27 174//27 173//27
f 173//28 174//28 170//28 169//28
f 171//29 175//29 173//29 169//29
f 176//30 172//30 170//30 174//30
f 177//25 178//25 180//25 179//25
f 179//26 180//26 184//26 183//26
f 183//27 184//27 182//27 181//27
f 181//28 182//28 178//28 177//28
f 179//29 183//29 181//29 177//29
f 184//30 180//30 178//30 182//30
f 185//25 186//25 188//25 187//25
f 187//26 188//26 192//26 191//26
f 191//27 192//27 190//27 189//27
f 189//28 190//28 186//28 185//28
f 187//29 191//29 189//29 185//29
f 192//30 188//30 186//30 190//30
f 193//25 194//25 196//25 195//25
f 195//26 196//26 200//26 199//26
f 199//27 200//27 198//27 197//27
f 197//28 198//28 194//28 193//28
f 195//29 199//29 197//29 193//29
f 200//30 196//30 194//30 198//30
