<?xml version="1.0" encoding="UTF-8" standalone="no"?>
<!-- Created with Inkscape (http://www.inkscape.org/) -->

<svg
   xmlns:dc="http://purl.org/dc/elements/1.1/"
   xmlns:cc="http://creativecommons.org/ns#"
   xmlns:rdf="http://www.w3.org/1999/02/22-rdf-syntax-ns#"
   xmlns:svg="http://www.w3.org/2000/svg"
   xmlns="http://www.w3.org/2000/svg"
   xmlns:sodipodi="http://sodipodi.sourceforge.net/DTD/sodipodi-0.dtd"
   xmlns:inkscape="http://www.inkscape.org/namespaces/inkscape"
   width="512"
   height="512"
   viewBox="0 0 512.00001 512.00001"
   id="svg2"
   version="1.1"
   inkscape:version="0.91 r13725"
   sodipodi:docname="IconAnchor.svg"
   inkscape:export-filename="D:\Software\Entwicklung\Unity\ARVisualizationTools\HoloLens\Assets\Textures\UX\AnchorScale.png"
   inkscape:export-xdpi="90"
   inkscape:export-ydpi="90">
  <defs
     id="defs4">
    <marker
       inkscape:stockid="TriangleOutM"
       orient="auto"
       refY="0.0"
       refX="0.0"
       id="TriangleOutM"
       style="overflow:visible"
       inkscape:isstock="true">
      <path
         id="path4298"
         d="M 5.77,0.0 L -2.88,5.0 L -2.88,-5.0 L 5.77,0.0 z "
         style="fill-rule:evenodd;stroke:#000000;stroke-width:1pt;stroke-opacity:1;fill:#000000;fill-opacity:1"
         transform="scale(0.4)" />
    </marker>
    <marker
       inkscape:stockid="TriangleOutL"
       orient="auto"
       refY="0.0"
       refX="0.0"
       id="TriangleOutL"
       style="overflow:visible"
       inkscape:isstock="true">
      <path
         id="path4295"
         d="M 5.77,0.0 L -2.88,5.0 L -2.88,-5.0 L 5.77,0.0 z "
         style="fill-rule:evenodd;stroke:#000000;stroke-width:1pt;stroke-opacity:1;fill:#000000;fill-opacity:1"
         transform="scale(0.8)" />
    </marker>
    <marker
       inkscape:stockid="Arrow2Lend"
       orient="auto"
       refY="0.0"
       refX="0.0"
       id="Arrow2Lend"
       style="overflow:visible;"
       inkscape:isstock="true">
      <path
         id="path4174"
         style="fill-rule:evenodd;stroke-width:0.625;stroke-linejoin:round;stroke:#000000;stroke-opacity:1;fill:#000000;fill-opacity:1"
         d="M 8.7185878,4.0337352 L -2.2072895,0.016013256 L 8.7185884,-4.0017078 C 6.9730900,-1.6296469 6.9831476,1.6157441 8.7185878,4.0337352 z "
         transform="scale(1.1) rotate(180) translate(1,0)" />
    </marker>
  </defs>
  <sodipodi:namedview
     id="base"
     pagecolor="#ffffff"
     bordercolor="#666666"
     borderopacity="1.0"
     inkscape:pageopacity="0.0"
     inkscape:pageshadow="2"
     inkscape:zoom="0.49497475"
     inkscape:cx="327.12923"
     inkscape:cy="191.29767"
     inkscape:document-units="px"
     inkscape:current-layer="layer1"
     showgrid="true"
     units="px"
     inkscape:snap-bbox="true"
     inkscape:bbox-nodes="true"
     inkscape:window-width="1536"
     inkscape:window-height="811"
     inkscape:window-x="-8"
     inkscape:window-y="-8"
     inkscape:window-maximized="1">
    <inkscape:grid
       type="xygrid"
       id="grid4136"
       empspacing="4" />
  </sodipodi:namedview>
  <metadata
     id="metadata7">
    <rdf:RDF>
      <cc:Work
         rdf:about="">
        <dc:format>image/svg+xml</dc:format>
        <dc:type
           rdf:resource="http://purl.org/dc/dcmitype/StillImage" />
        <dc:title></dc:title>
      </cc:Work>
    </rdf:RDF>
  </metadata>
  <g
     inkscape:label="Ebene 1"
     inkscape:groupmode="layer"
     id="layer1"
     transform="translate(0,-540.36216)">
    <path
       id="path55490"
       d="m 255.99539,540.36217 a 49.992351,49.992351 0 0 0 -49.99037,49.99488 49.992351,49.992351 0 0 0 19.47918,39.55983 l 0,64.44709 -63.17526,0 c -11.62597,0 -20.98519,9.35914 -20.98519,20.98503 0,11.62587 9.35922,20.98501 20.98519,20.98501 l 63.17526,0 0,265.84999 a 101.28325,101.28325 0 0 1 -70.76873,-96.55129 l 0,-95.85351 -99.985145,99.98525 54.746455,0 a 146.73085,146.73085 0 0 0 73.16057,122.93985 146.73085,146.73085 0 0 0 146.72976,0 146.73085,146.73085 0 0 0 73.2662,-122.93985 l 54.63636,0 -99.98514,-99.98525 0,95.85351 a 101.28325,101.28325 0 0 1 -70.76873,96.45939 l 0,-265.75809 63.17526,0 c 11.62579,0 20.98494,-9.35914 20.98494,-20.98501 0,-11.62589 -9.35915,-20.98503 -20.98494,-20.98503 l -63.17526,0 0,-64.4838 a 49.992351,49.992351 0 0 0 19.47447,-39.52312 49.992351,49.992351 0 0 0 -49.99488,-49.99488 z m 0,24.67148 a 25.320802,25.320802 0 0 1 25.32339,25.3234 25.320802,25.320802 0 0 1 -25.32339,25.31888 25.320802,25.320802 0 0 1 -25.31435,-25.31888 25.320802,25.320802 0 0 1 25.31435,-25.3234 z"
       style="opacity:1;fill:#784421;fill-opacity:1;stroke:none;stroke-width:10;stroke-linecap:butt;stroke-linejoin:round;stroke-miterlimit:4;stroke-dasharray:none;stroke-dashoffset:0;stroke-opacity:1;paint-order:stroke fill markers"
       inkscape:connector-curvature="0"
       inkscape:export-xdpi="287.01001"
       inkscape:export-ydpi="287.01001" />
  </g>
</svg>
